<svg xmlns="http://www.w3.org/2000/svg" viewBox="216.59381691449815 161.76791592 126.78662453531598 111.0171972" id="svg1" version="1.1" style="max-height: 500px" width="126.78662453531598" height="111.0171972">
  <defs id="defs1"/>
  
    
  
  <g id="g1">
    <g id="group-R5">
      <path transform="matrix(0.13333333,0,0,-0.13333333,0,528.65333)" style="fill:#ffffff;fill-opacity:1;fill-rule:nonzero;stroke:none" d="M 4263.23,0 H 0 V 3964.91 H 4263.23 V 0" id="path2"/>
      <path transform="matrix(0.13333333,0,0,-0.13333333,0,528.65333)" style="fill:#FFFFFF;fill-opacity:1;fill-rule:evenodd;stroke:none" d="m 2425.17,2600.43 c -10.33,9.41 -26.57,10.8 -38.49,3.26 -12.25,-7.69 -16.96,-21.25 -13.82,-36.1 0.84,-3.91 -0.28,-9.96 -2.89,-12.62 -34.23,-34.87 -68.79,-69.35 -103.57,-103.6 -2.53,-2.5 -7.65,-2.81 -11.66,-3.2 -7.85,-0.88 -16.39,0.62 -23.43,-2.03 -6.7,-2.49 -10.52,-1.22 -15.29,2.67 -17.61,14.24 -35.66,28.03 -52.99,42.65 -3.39,2.78 -5.94,8.59 -5.89,13.05 0.11,14.02 -4.69,24.9 -17.16,31.46 -11.51,6.07 -23.28,5.38 -33.65,-2.52 -11.04,-8.35 -15.24,-19.58 -12.21,-33.59 0.67,-3.22 -0.92,-8.44 -3.33,-10.61 -36.07,-32.36 -72.41,-64.39 -108.83,-96.34 -1.97,-1.78 -5.84,-3.75 -7.63,-2.96 -18.78,8.34 -32.37,2.99 -43.12,-10.33 l -95.67,20.17 c -1.09,15.44 -13.82,27.59 -29.49,27.59 -16.42,0 -29.73,-13.27 -29.73,-29.69 0,-16.41 13.31,-29.75 29.73,-29.75 9.1,0 17.19,4.21 22.65,10.69 l 97.48,-20.59 c 0,-2.09 0,-4.21 0,-6.32 0.81,-0.7 1.86,-1.24 2.38,-2.08 10.13,-17.02 24.42,-23.28 40.39,-17.66 15.08,5.32 22.29,19.53 20.06,38.13 -0.37,3.17 1.07,7.72 3.36,9.8 36.35,32.55 73.01,64.84 109.73,97.05 1.91,1.66 5.83,3.42 7.68,2.58 13.09,-5.99 25.28,-3.73 36.91,3.67 20.11,-15.91 39.49,-31.71 59.32,-46.89 5.72,-4.39 8.11,-8.27 6.95,-15.99 -1.94,-13.12 5.54,-25.63 17.35,-31.07 11.71,-5.39 23.23,-4.65 33.67,3.33 10.6,8.04 15.35,20.99 10.86,33.75 -2.47,6.92 0.04,10.35 4.43,14.68 33,32.77 65.96,65.67 98.65,98.72 5.8,5.91 10.63,8.7 19.65,6.33 14.7,-3.87 28.08,3.55 34.61,16.48 6.49,12.89 3.66,28.21 -7.01,37.88" id="path3"/>
      <path transform="matrix(0.13333333,0,0,-0.13333333,0,528.65333)" style="fill:#FFFFFF;fill-opacity:1;fill-rule:evenodd;stroke:none" d="m 2412.25,2343.04 c -9.7,8.83 -24.92,10.13 -36.11,3.08 -11.5,-7.22 -15.92,-19.95 -12.96,-33.88 0.78,-3.68 -0.27,-9.35 -2.73,-11.86 -32.1,-32.69 -64.53,-65.05 -97.15,-97.2 -2.38,-2.33 -7.18,-2.64 -10.93,-3.01 -7.37,-0.78 -15.38,0.61 -21.98,-1.88 -6.29,-2.34 -9.88,-1.12 -14.35,2.51 -16.53,13.38 -33.47,26.28 -49.72,40.01 -3.18,2.61 -5.56,8.06 -5.51,12.26 0.1,13.13 -4.41,23.36 -16.12,29.49 -10.8,5.71 -21.83,5.05 -31.56,-2.35 -10.35,-7.84 -14.31,-18.37 -11.46,-31.51 0.64,-3.04 -0.85,-7.93 -3.13,-9.94 -33.83,-30.39 -67.91,-60.44 -102.08,-90.38 -1.86,-1.7 -5.48,-3.52 -7.17,-2.81 -17.62,7.84 -30.36,2.81 -40.45,-9.67 l -89.74,18.93 c -1.03,14.46 -12.97,25.87 -27.67,25.87 -15.39,0 -27.89,-12.43 -27.89,-27.84 0,-15.42 12.5,-27.93 27.89,-27.93 8.54,0 16.12,3.95 21.25,10.05 l 91.45,-19.33 c 0,-1.98 0,-3.94 0,-5.93 0.75,-0.67 1.73,-1.15 2.22,-1.94 9.51,-15.99 22.92,-21.84 37.9,-16.59 14.14,5 20.92,18.32 18.82,35.78 -0.35,2.97 1,7.25 3.14,9.2 34.11,30.53 68.51,60.81 102.96,91.04 1.8,1.58 5.46,3.21 7.2,2.44 12.28,-5.62 23.71,-3.51 34.63,3.41 18.86,-14.91 37.05,-29.73 55.65,-43.98 5.37,-4.11 7.6,-7.75 6.52,-14.97 -1.83,-12.31 5.18,-24.05 16.27,-29.17 10.98,-5.03 21.79,-4.36 31.6,3.13 9.93,7.54 14.38,19.7 10.18,31.65 -2.31,6.51 0.03,9.72 4.16,13.78 30.95,30.73 61.88,61.59 92.54,92.62 5.43,5.53 9.98,8.16 18.43,5.91 13.79,-3.61 26.35,3.36 32.48,15.47 6.09,12.08 3.44,26.46 -6.58,35.54" id="path4"/>
      <path transform="matrix(0.13333333,0,0,-0.13333333,0,528.65333)" style="fill:#df1f25;fill-opacity:1;fill-rule:evenodd;stroke:none" d="m 1896.86,2473.58 c 0,-21.27 -17.24,-38.49 -38.51,-38.49 -21.26,0 -38.51,17.22 -38.51,38.49 0,21.3 17.25,38.53 38.51,38.53 21.27,0 38.51,-17.23 38.51,-38.53" id="path5"/>
      <path transform="matrix(0.13333333,0,0,-0.13333333,0,528.65333)" style="fill:#df1f25;fill-opacity:1;fill-rule:evenodd;stroke:none" d="m 1858.35,2306.13 c 0,-11.48 -9.29,-20.77 -20.76,-20.77 -11.47,0 -20.76,9.29 -20.76,20.77 0,11.45 9.29,20.77 20.76,20.77 11.47,0 20.76,-9.32 20.76,-20.77" id="path6"/>
      <path transform="matrix(0.13333333,0,0,-0.13333333,0,528.65333)" style="fill:#df1f25;fill-opacity:1;fill-rule:evenodd;stroke:none" d="m 1994.66,2469.26 c 0,-11.48 -9.31,-20.78 -20.78,-20.78 -11.46,0 -20.76,9.3 -20.76,20.78 0,11.47 9.3,20.74 20.76,20.74 11.47,0 20.78,-9.27 20.78,-20.74" id="path7"/>
      <path transform="matrix(0.13333333,0,0,-0.13333333,0,528.65333)" style="fill:#df1f25;fill-opacity:1;fill-rule:evenodd;stroke:none" d="m 1911.46,2608.53 c 0,-11.47 -9.31,-20.77 -20.77,-20.77 -11.47,0 -20.77,9.3 -20.77,20.77 0,11.47 9.3,20.75 20.77,20.75 11.46,0 20.77,-9.28 20.77,-20.75" id="path8"/>
      <path transform="matrix(0.13333333,0,0,-0.13333333,0,528.65333)" style="fill:#df1f25;fill-opacity:1;fill-rule:evenodd;stroke:none" d="m 2338.85,2358.04 c 0,-11.45 -9.29,-20.74 -20.78,-20.74 -11.45,0 -20.76,9.29 -20.76,20.74 0,11.49 9.31,20.77 20.76,20.77 11.49,0 20.78,-9.28 20.78,-20.77" id="path9"/>
      <path transform="matrix(0.13333333,0,0,-0.13333333,0,528.65333)" style="fill:#df1f25;fill-opacity:1;fill-rule:evenodd;stroke:none" d="m 2144.47,2425.44 c 0,-11.48 -9.28,-20.76 -20.75,-20.76 -11.47,0 -20.77,9.28 -20.77,20.76 0,11.48 9.3,20.75 20.77,20.75 11.47,0 20.75,-9.27 20.75,-20.75" id="path10"/>
      <path transform="matrix(0.13333333,0,0,-0.13333333,0,528.65333)" style="fill:#df1f25;fill-opacity:1;fill-rule:evenodd;stroke:none" d="m 2053.68,2306.13 c 0,-11.48 -9.3,-20.77 -20.76,-20.77 -11.46,0 -20.78,9.29 -20.78,20.77 0,11.45 9.32,20.77 20.78,20.77 11.46,0 20.76,-9.32 20.76,-20.77" id="path11"/>
      <path transform="matrix(0.13333333,0,0,-0.13333333,0,528.65333)" style="fill:#df1f25;fill-opacity:1;fill-rule:evenodd;stroke:none" d="m 2165.24,2608.51 c 0,-11.47 -9.28,-20.77 -20.77,-20.77 -11.44,0 -20.75,9.3 -20.75,20.77 0,11.49 9.31,20.79 20.75,20.79 11.49,0 20.77,-9.3 20.77,-20.79" id="path12"/>
      <path transform="matrix(0.13333333,0,0,-0.13333333,0,528.65333)" style="fill:#df1f25;fill-opacity:1;fill-rule:evenodd;stroke:none" d="m 2238.34,2667.79 c 0,-11.48 -9.29,-20.78 -20.77,-20.78 -11.46,0 -20.77,9.3 -20.77,20.78 0,11.48 9.31,20.77 20.77,20.77 11.48,0 20.77,-9.29 20.77,-20.77" id="path13"/>
      <path transform="matrix(0.13333333,0,0,-0.13333333,0,528.65333)" style="fill:#df1f25;fill-opacity:1;fill-rule:evenodd;stroke:none" d="m 1800.11,2531.51 c 0,-11.48 -9.28,-20.78 -20.77,-20.78 -11.44,0 -20.76,9.3 -20.76,20.78 0,11.48 9.32,20.78 20.76,20.78 11.49,0 20.77,-9.3 20.77,-20.78" id="path14"/>
      <path transform="matrix(0.13333333,0,0,-0.13333333,0,528.65333)" style="fill:#df1f25;fill-opacity:1;fill-rule:evenodd;stroke:none" d="m 1720.06,2329.95 c 0,-11.47 -9.29,-20.77 -20.77,-20.77 -11.44,0 -20.76,9.3 -20.76,20.77 0,11.49 9.32,20.78 20.76,20.78 11.48,0 20.77,-9.29 20.77,-20.78" id="path15"/>
      <path transform="matrix(0.13333333,0,0,-0.13333333,0,528.65333)" style="fill:#df1f25;fill-opacity:1;fill-rule:evenodd;stroke:none" d="m 2432.72,2490 c 0,-11.45 -9.3,-20.74 -20.77,-20.74 -11.48,0 -20.76,9.29 -20.76,20.74 0,11.48 9.28,20.8 20.76,20.8 11.47,0 20.77,-9.32 20.77,-20.8" id="path16"/>
      <path transform="matrix(0.13333333,0,0,-0.13333333,0,528.65333)" style="fill:#df1f25;fill-opacity:1;fill-rule:evenodd;stroke:none" d="m 2338.85,2629.26 c 0,-11.43 -9.29,-20.75 -20.76,-20.75 -11.47,0 -20.78,9.32 -20.78,20.75 0,11.48 9.31,20.8 20.78,20.8 11.47,0 20.76,-9.32 20.76,-20.8" id="path17"/>
      <path transform="matrix(0.13333333,0,0,-0.13333333,0,528.65333)" style="fill:#df1f25;fill-opacity:1;fill-rule:evenodd;stroke:none" d="m 2183,2338.82 c 0,-21.3 -17.23,-38.52 -38.53,-38.52 -21.25,0 -38.5,17.22 -38.5,38.52 0,21.25 17.25,38.48 38.5,38.48 21.3,0 38.53,-17.23 38.53,-38.48" id="path18"/>
      <path transform="matrix(0.13333333,0,0,-0.13333333,0,528.65333)" style="fill:#df1f25;fill-opacity:1;fill-rule:evenodd;stroke:none" d="m 1973.88,2249.88 c 0,-21.28 -17.24,-38.51 -38.5,-38.51 -21.27,0 -38.52,17.23 -38.52,38.51 0,21.25 17.25,38.49 38.52,38.49 21.26,0 38.5,-17.24 38.5,-38.49" id="path19"/>
      <path transform="matrix(0.13333333,0,0,-0.13333333,0,528.65333)" style="fill:#df1f25;fill-opacity:1;fill-rule:evenodd;stroke:none" d="m 2032.92,2570.01 c 0,-21.25 -17.25,-38.5 -38.52,-38.5 -21.27,0 -38.52,17.25 -38.52,38.5 0,21.27 17.25,38.5 38.52,38.5 21.27,0 38.52,-17.23 38.52,-38.5" id="path20"/>
      <path transform="matrix(0.13333333,0,0,-0.13333333,0,528.65333)" style="fill:#df1f25;fill-opacity:1;fill-rule:evenodd;stroke:none" d="m 2294.6,2570.01 c 0,-21.25 -17.26,-38.5 -38.52,-38.5 -21.26,0 -38.5,17.25 -38.5,38.5 0,21.27 17.24,38.5 38.5,38.5 21.26,0 38.52,-17.23 38.52,-38.5" id="path21"/>
      <path transform="matrix(0.13333333,0,0,-0.13333333,0,528.65333)" style="fill:#df1f25;fill-opacity:1;fill-rule:evenodd;stroke:none" d="m 2109.94,2667.79 c 0,-21.26 -17.25,-38.51 -38.52,-38.51 -21.26,0 -38.5,17.25 -38.5,38.51 0,21.27 17.24,38.51 38.5,38.51 21.27,0 38.52,-17.24 38.52,-38.51" id="path22"/>
      <path transform="matrix(0.13333333,0,0,-0.13333333,0,528.65333)" style="fill:#df1f25;fill-opacity:1;fill-rule:evenodd;stroke:none" d="m 2474.16,2396.56 c 0,-21.27 -17.24,-38.52 -38.53,-38.52 -21.27,0 -38.51,17.25 -38.51,38.52 0,21.27 17.24,38.53 38.51,38.53 21.29,0 38.53,-17.26 38.53,-38.53" id="path23"/>
      <path transform="matrix(0.13333333,0,0,-0.13333333,0,528.65333)" style="fill:#df1f25;fill-opacity:1;fill-rule:evenodd;stroke:none" d="m 1852.17,2049.85 c 0,-11.45 -9.29,-20.74 -20.75,-20.74 -11.47,0 -20.75,9.29 -20.75,20.74 0,11.48 9.28,20.79 20.75,20.79 11.46,0 20.75,-9.31 20.75,-20.79" id="path24"/>
      <path transform="matrix(0.13333333,0,0,-0.13333333,0,528.65333)" style="fill:#df1f25;fill-opacity:1;fill-rule:evenodd;stroke:none" d="m 2332.7,2101.79 c 0,-11.46 -9.32,-20.76 -20.81,-20.76 -11.44,0 -20.74,9.3 -20.74,20.76 0,11.48 9.3,20.79 20.74,20.79 11.49,0 20.81,-9.31 20.81,-20.79" id="path25"/>
      <path transform="matrix(0.13333333,0,0,-0.13333333,0,528.65333)" style="fill:#df1f25;fill-opacity:1;fill-rule:evenodd;stroke:none" d="m 2144.48,1993.6 c 0,-11.47 -9.3,-20.74 -20.78,-20.74 -11.45,0 -20.75,9.27 -20.75,20.74 0,11.49 9.3,20.77 20.75,20.77 11.48,0 20.78,-9.28 20.78,-20.77" id="path26"/>
      <path transform="matrix(0.13333333,0,0,-0.13333333,0,528.65333)" style="fill:#df1f25;fill-opacity:1;fill-rule:evenodd;stroke:none" d="m 2138.3,2169.19 c 0,-11.5 -9.28,-20.75 -20.76,-20.75 -11.46,0 -20.75,9.25 -20.75,20.75 0,11.46 9.29,20.75 20.75,20.75 11.48,0 20.76,-9.29 20.76,-20.75" id="path27"/>
      <path transform="matrix(0.13333333,0,0,-0.13333333,0,528.65333)" style="fill:#df1f25;fill-opacity:1;fill-rule:evenodd;stroke:none" d="m 2047.51,2049.85 c 0,-11.45 -9.29,-20.74 -20.75,-20.74 -11.47,0 -20.78,9.29 -20.78,20.74 0,11.48 9.31,20.79 20.78,20.79 11.46,0 20.75,-9.31 20.75,-20.79" id="path28"/>
      <path transform="matrix(0.13333333,0,0,-0.13333333,0,528.65333)" style="fill:#df1f25;fill-opacity:1;fill-rule:evenodd;stroke:none" d="m 2426.54,2233.76 c 0,-11.47 -9.29,-20.76 -20.76,-20.76 -11.48,0 -20.77,9.29 -20.77,20.76 0,11.46 9.29,20.78 20.77,20.78 11.47,0 20.76,-9.32 20.76,-20.78" id="path29"/>
      <path transform="matrix(0.13333333,0,0,-0.13333333,0,528.65333)" style="fill:#df1f25;fill-opacity:1;fill-rule:evenodd;stroke:none" d="m 1779.35,2122.54 c 0,-11.45 -9.3,-20.75 -20.77,-20.75 -11.48,0 -20.77,9.3 -20.77,20.75 0,11.47 9.29,20.79 20.77,20.79 11.47,0 20.77,-9.32 20.77,-20.79" id="path30"/>
      <path transform="matrix(0.13333333,0,0,-0.13333333,0,528.65333)" style="fill:#df1f25;fill-opacity:1;fill-rule:evenodd;stroke:none" d="m 2276.86,2285.33 c 0,-11.44 -9.31,-20.74 -20.76,-20.74 -11.49,0 -20.78,9.3 -20.78,20.74 0,11.47 9.29,20.81 20.78,20.81 11.45,0 20.76,-9.34 20.76,-20.81" id="path31"/>
      <path transform="matrix(0.13333333,0,0,-0.13333333,0,528.65333)" style="fill:#df1f25;fill-opacity:1;fill-rule:evenodd;stroke:none" d="m 2176.84,2082.56 c 0,-21.28 -17.24,-38.51 -38.54,-38.51 -21.26,0 -38.49,17.23 -38.49,38.51 0,21.26 17.23,38.49 38.49,38.49 21.3,0 38.54,-17.23 38.54,-38.49" id="path32"/>
      <path transform="matrix(0.13333333,0,0,-0.13333333,0,528.65333)" style="fill:#df1f25;fill-opacity:1;fill-rule:evenodd;stroke:none" d="m 2294.6,2044.05 c 0,-21.26 -17.24,-38.5 -38.53,-38.5 -21.26,0 -38.49,17.24 -38.49,38.5 0,21.26 17.23,38.49 38.49,38.49 21.29,0 38.53,-17.23 38.53,-38.49" id="path33"/>
      <path transform="matrix(0.13333333,0,0,-0.13333333,0,528.65333)" style="fill:#df1f25;fill-opacity:1;fill-rule:evenodd;stroke:none" d="m 1967.71,1993.62 c 0,-21.27 -17.24,-38.51 -38.51,-38.51 -21.27,0 -38.51,17.24 -38.51,38.51 0,21.25 17.24,38.51 38.51,38.51 21.27,0 38.51,-17.26 38.51,-38.51" id="path34"/>
      <path transform="matrix(0.13333333,0,0,-0.13333333,0,528.65333)" style="fill:#df1f25;fill-opacity:1;fill-rule:evenodd;stroke:none" d="m 2467.97,2140.29 c 0,-21.25 -17.23,-38.5 -38.5,-38.5 -21.28,0 -38.52,17.25 -38.52,38.5 0,21.28 17.24,38.53 38.52,38.53 21.27,0 38.5,-17.25 38.5,-38.53" id="path35"/>
      <path transform="matrix(0.13333333,0,0,-0.13333333,0,528.65333)" style="fill:#df1f25;fill-opacity:1;fill-rule:evenodd;stroke:none" d="m 2529.9,2285.33 c 0,-21.25 -17.23,-38.49 -38.52,-38.49 -21.26,0 -38.5,17.24 -38.5,38.49 0,21.3 17.24,38.54 38.5,38.54 21.29,0 38.52,-17.24 38.52,-38.54" id="path36"/>
      <path transform="matrix(0.13333333,0,0,-0.13333333,0,528.65333)" style="fill:#df1f25;fill-opacity:1;fill-rule:evenodd;stroke:none" d="m 1737.81,2448.46 c 0,-21.26 -17.24,-38.5 -38.51,-38.5 -21.28,0 -38.52,17.24 -38.52,38.5 0,21.29 17.24,38.54 38.52,38.54 21.27,0 38.51,-17.25 38.51,-38.54" id="path37"/>
      <path transform="matrix(0.13333333,0,0,-0.13333333,0,528.65333)" style="fill:#df1f25;fill-opacity:1;fill-rule:evenodd;stroke:none" d="m 1776.32,2233.77 c 0,-21.29 -17.23,-38.53 -38.51,-38.53 -21.29,0 -38.51,17.24 -38.51,38.53 0,21.28 17.22,38.51 38.51,38.51 21.28,0 38.51,-17.23 38.51,-38.51" id="path38"/>
    </g>
  </g>
</svg>