<svg width="1920" height="1080" viewBox="0 0 1920 1080" xmlns="http://www.w3.org/2000/svg">
  <g stroke="#6b7280" stroke-opacity="0.55" stroke-width="1.2" fill="none">
    <!-- Horizontal/diagonal edges -->
    <line x1="200" y1="220" x2="420" y2="180" />
    <line x1="420" y1="180" x2="640" y2="260" />
    <line x1="640" y1="260" x2="860" y2="160" />
    <line x1="860" y1="160" x2="1100" y2="240" />
    <line x1="1100" y1="240" x2="1350" y2="200" />
    <line x1="1350" y1="200" x2="1600" y2="280" />

    <line x1="320" y1="460" x2="500" y2="540" />
    <line x1="500" y1="540" x2="700" y2="460" />
    <line x1="700" y1="460" x2="960" y2="520" />
    <line x1="960" y1="520" x2="1200" y2="440" />
    <line x1="1200" y1="440" x2="1460" y2="540" />
    <line x1="1460" y1="540" x2="1680" y2="680" />

    <line x1="280" y1="700" x2="520" y2="720" />
    <line x1="520" y1="720" x2="780" y2="720" />
    <line x1="780" y1="720" x2="1020" y2="700" />
    <line x1="1020" y1="700" x2="1240" y2="620" />
    <line x1="1240" y1="620" x2="1460" y2="540" />

    <!-- Cross connections -->
    <line x1="420" y1="180" x2="700" y2="460" />
    <line x1="640" y1="260" x2="960" y2="520" />
    <line x1="860" y1="160" x2="1200" y2="440" />
    <line x1="1100" y1="240" x2="1460" y2="540" />
    <line x1="960" y1="520" x2="780" y2="720" />
    <line x1="1200" y1="440" x2="1020" y2="700" />
  </g>

  <!-- Nodes -->
  <g fill="#6b7280" fill-opacity="0.65">
    <circle cx="200" cy="220" r="3" />
    <circle cx="420" cy="180" r="3" />
    <circle cx="640" cy="260" r="3" />
    <circle cx="860" cy="160" r="3.2" />
    <circle cx="1100" cy="240" r="3" />
    <circle cx="1350" cy="200" r="3" />
    <circle cx="1600" cy="280" r="3.2" />

    <circle cx="320" cy="460" r="3" />
    <circle cx="500" cy="540" r="3" />
    <circle cx="700" cy="460" r="3" />
    <circle cx="960" cy="520" r="3.4" />
    <circle cx="1200" cy="440" r="3" />
    <circle cx="1460" cy="540" r="3.2" />
    <circle cx="1680" cy="680" r="3" />

    <circle cx="280" cy="700" r="3" />
    <circle cx="520" cy="720" r="3" />
    <circle cx="780" cy="720" r="3" />
    <circle cx="1020" cy="700" r="3" />
    <circle cx="1240" cy="620" r="3" />
  </g>
</svg>
