<svg width="1920" height="1080" viewBox="0 0 1920 1080" xmlns="http://www.w3.org/2000/svg">
  <!-- Background -->
  <rect width="1920" height="1080" fill="#f9fafb"/>
  
  <!-- Topographic map inspired contour lines -->
  <defs>
    <linearGradient id="topoGrad" x1="0%" y1="0%" x2="100%" y2="100%">
      <stop offset="0%" style="stop-color:#1e40af;stop-opacity:0.02"/>
      <stop offset="50%" style="stop-color:#3b82f6;stop-opacity:0.04"/>
      <stop offset="100%" style="stop-color:#1e40af;stop-opacity:0.02"/>
    </linearGradient>
  </defs>
  
  <!-- Contour lines - elevation style -->
  <ellipse cx="400" cy="300" rx="200" ry="150" fill="none" stroke="#1e40af" stroke-width="1" opacity="0.05"/>
  <ellipse cx="400" cy="300" rx="160" ry="120" fill="none" stroke="#1e40af" stroke-width="1" opacity="0.06"/>
  <ellipse cx="400" cy="300" rx="120" ry="90" fill="none" stroke="#1e40af" stroke-width="1" opacity="0.07"/>
  <ellipse cx="400" cy="300" rx="80" ry="60" fill="none" stroke="#1e40af" stroke-width="1" opacity="0.08"/>
  
  <ellipse cx="1200" cy="500" rx="250" ry="180" fill="none" stroke="#3b82f6" stroke-width="1" opacity="0.05"/>
  <ellipse cx="1200" cy="500" rx="200" ry="144" fill="none" stroke="#3b82f6" stroke-width="1" opacity="0.06"/>
  <ellipse cx="1200" cy="500" rx="150" ry="108" fill="none" stroke="#3b82f6" stroke-width="1" opacity="0.07"/>
  <ellipse cx="1200" cy="500" rx="100" ry="72" fill="none" stroke="#3b82f6" stroke-width="1" opacity="0.08"/>
  
  <ellipse cx="800" cy="800" rx="180" ry="120" fill="none" stroke="#1e40af" stroke-width="1" opacity="0.05"/>
  <ellipse cx="800" cy="800" rx="135" ry="90" fill="none" stroke="#1e40af" stroke-width="1" opacity="0.06"/>
  <ellipse cx="800" cy="800" rx="90" ry="60" fill="none" stroke="#1e40af" stroke-width="1" opacity="0.07"/>
  
  <ellipse cx="1500" cy="200" rx="150" ry="100" fill="none" stroke="#3b82f6" stroke-width="1" opacity="0.05"/>
  <ellipse cx="1500" cy="200" rx="100" ry="67" fill="none" stroke="#3b82f6" stroke-width="1" opacity="0.06"/>
  <ellipse cx="1500" cy="200" rx="50" ry="33" fill="none" stroke="#3b82f6" stroke-width="1" opacity="0.07"/>
  
  <!-- Connecting ridgelines -->
  <path d="M 400 300 Q 800 250 1200 500" fill="none" stroke="#1e40af" stroke-width="0.5" opacity="0.03"/>
  <path d="M 1200 500 Q 1000 650 800 800" fill="none" stroke="#3b82f6" stroke-width="0.5" opacity="0.03"/>
  <path d="M 800 800 Q 1150 500 1500 200" fill="none" stroke="#1e40af" stroke-width="0.5" opacity="0.03"/>
  
  <!-- Elevation points -->
  <circle cx="400" cy="300" r="2" fill="#1e40af" opacity="0.2"/>
  <circle cx="1200" cy="500" r="2" fill="#3b82f6" opacity="0.2"/>
  <circle cx="800" cy="800" r="2" fill="#1e40af" opacity="0.2"/>
  <circle cx="1500" cy="200" r="2" fill="#3b82f6" opacity="0.2"/>
  
  <!-- Grid reference lines -->
  <line x1="0" y1="270" x2="1920" y2="270" stroke="#1e40af" stroke-width="0.3" opacity="0.02"/>
  <line x1="0" y1="540" x2="1920" y2="540" stroke="#1e40af" stroke-width="0.3" opacity="0.02"/>
  <line x1="0" y1="810" x2="1920" y2="810" stroke="#1e40af" stroke-width="0.3" opacity="0.02"/>
  
  <line x1="480" y1="0" x2="480" y2="1080" stroke="#3b82f6" stroke-width="0.3" opacity="0.02"/>
  <line x1="960" y1="0" x2="960" y2="1080" stroke="#3b82f6" stroke-width="0.3" opacity="0.02"/>
  <line x1="1440" y1="0" x2="1440" y2="1080" stroke="#3b82f6" stroke-width="0.3" opacity="0.02"/>
</svg>