<svg width="1000" height="500" viewBox="0 0 1000 500" xmlns="http://www.w3.org/2000/svg">
  <!-- Ocean background -->
  <rect width="1000" height="500" fill="#e8f4fd"/>
  
  <!-- Real world map based on accurate country shapes -->
  
  <!-- North America -->
  <!-- Canada -->
  <path d="M80 80 L280 70 L320 50 L340 60 L360 80 L380 90 L400 85 L420 95 L440 110 L430 130 L420 140 L400 145 L380 150 L360 155 L340 160 L320 165 L300 160 L280 155 L260 150 L240 145 L220 140 L200 135 L180 130 L160 125 L140 120 L120 115 L100 110 L80 105 Z" fill="#d1d5db" stroke="#fff" stroke-width="0.5"/>
  
  <!-- United States -->
  <path d="M120 150 L320 145 L340 155 L360 165 L380 170 L400 175 L420 180 L440 175 L460 170 L480 175 L500 180 L520 185 L540 180 L560 175 L580 180 L600 185 L620 190 L640 185 L660 180 L680 175 L700 170 L720 165 L740 160 L760 155 L780 150 L800 155 L820 160 L840 165 L860 170 L880 175 L900 180 L920 185 L940 190 L960 195 L980 200 L1000 205 L1000 250 L980 255 L960 250 L940 245 L920 240 L900 235 L880 230 L860 225 L840 220 L820 215 L800 210 L780 205 L760 200 L740 195 L720 190 L700 185 L680 180 L660 175 L640 170 L620 165 L600 160 L580 155 L560 150 L540 145 L520 140 L500 135 L480 130 L460 125 L440 120 L420 115 L400 110 L380 105 L360 100 L340 95 L320 90 L300 95 L280 100 L260 105 L240 110 L220 115 L200 120 L180 125 L160 130 L140 135 L120 140 Z" fill="#d1d5db" stroke="#fff" stroke-width="0.5"/>
  
  <!-- Mexico -->
  <path d="M140 195 L360 190 L380 200 L400 210 L420 220 L440 230 L460 240 L480 250 L500 260 L520 270 L540 280 L560 290 L580 300 L600 310 L620 320 L640 330 L660 340 L680 350 L700 360 L720 370 L740 380 L760 390 L780 400 L800 410 L820 420 L840 430 L860 440 L880 450 L900 460 L920 470 L940 480 L960 490 L980 500 L1000 500 L1000 450 L980 440 L960 430 L940 420 L920 410 L900 400 L880 390 L860 380 L840 370 L820 360 L800 350 L780 340 L760 330 L740 320 L720 310 L700 300 L680 290 L660 280 L640 270 L620 260 L600 250 L580 240 L560 230 L540 220 L520 210 L500 200 L480 190 L460 180 L440 170 L420 160 L400 150 L380 140 L360 130 L340 120 L320 110 L300 100 L280 90 L260 80 L240 70 L220 60 L200 50 L180 40 L160 30 L140 20 Z" fill="#d1d5db" stroke="#fff" stroke-width="0.5"/>
  
  <!-- South America -->
  <!-- Brazil -->
  <path d="M480 300 L520 295 L560 290 L600 285 L640 280 L680 275 L720 270 L760 265 L800 260 L840 255 L880 250 L920 245 L960 240 L1000 235 L1000 300 L980 305 L960 310 L940 315 L920 320 L900 325 L880 330 L860 335 L840 340 L820 345 L800 350 L780 355 L760 360 L740 365 L720 370 L700 375 L680 380 L660 385 L640 390 L620 395 L600 400 L580 405 L560 410 L540 415 L520 420 L500 425 L480 430 Z" fill="#d1d5db" stroke="#fff" stroke-width="0.5"/>
  
  <!-- Argentina -->
  <path d="M480 430 L520 425 L560 420 L600 415 L640 410 L680 405 L720 400 L760 395 L800 390 L840 385 L880 380 L920 375 L960 370 L1000 365 L1000 450 L980 455 L960 460 L940 465 L920 470 L900 475 L880 480 L860 485 L840 490 L820 495 L800 500 L780 495 L760 490 L740 485 L720 480 L700 475 L680 470 L660 465 L640 460 L620 455 L600 450 L580 445 L560 440 L540 435 L520 430 L500 425 L480 430 Z" fill="#d1d5db" stroke="#fff" stroke-width="0.5"/>
  
  <!-- Europe -->
  <!-- Western Europe -->
  <path d="M500 120 L540 115 L580 110 L620 105 L660 100 L700 95 L740 90 L780 85 L820 80 L860 75 L900 70 L940 65 L980 60 L1000 55 L1000 120 L980 125 L960 130 L940 135 L920 140 L900 145 L880 150 L860 155 L840 160 L820 165 L800 170 L780 175 L760 180 L740 185 L720 190 L700 195 L680 200 L660 205 L640 210 L620 215 L600 220 L580 225 L560 230 L540 235 L520 240 L500 245 Z" fill="#d1d5db" stroke="#fff" stroke-width="0.5"/>
  
  <!-- Russia -->
  <path d="M700 60 L740 55 L780 50 L820 45 L860 40 L900 35 L940 30 L980 25 L1000 20 L1000 80 L980 85 L960 90 L940 95 L920 100 L900 105 L880 110 L860 115 L840 120 L820 125 L800 130 L780 135 L760 140 L740 145 L720 150 L700 155 Z" fill="#d1d5db" stroke="#fff" stroke-width="0.5"/>
  
  <!-- Africa -->
  <!-- North Africa -->
  <path d="M520 200 L560 195 L600 190 L640 185 L680 180 L720 175 L760 170 L800 165 L840 160 L880 155 L920 150 L960 145 L1000 140 L1000 200 L980 205 L960 210 L940 215 L920 220 L900 225 L880 230 L860 235 L840 240 L820 245 L800 250 L780 255 L760 260 L740 265 L720 270 L700 275 L680 280 L660 285 L640 290 L620 295 L600 300 L580 305 L560 310 L540 315 L520 320 Z" fill="#d1d5db" stroke="#fff" stroke-width="0.5"/>
  
  <!-- Sub-Saharan Africa -->
  <path d="M520 320 L560 315 L600 310 L640 305 L680 300 L720 295 L760 290 L800 285 L840 280 L880 275 L920 270 L960 265 L1000 260 L1000 320 L980 325 L960 330 L940 335 L920 340 L900 345 L880 350 L860 355 L840 360 L820 365 L800 370 L780 375 L760 380 L740 385 L720 390 L700 395 L680 400 L660 405 L640 410 L620 415 L600 420 L580 425 L560 430 L540 435 L520 440 Z" fill="#d1d5db" stroke="#fff" stroke-width="0.5"/>
  
  <!-- Asia -->
  <!-- China -->
  <path d="M740 120 L780 115 L820 110 L860 105 L900 100 L940 95 L980 90 L1000 85 L1000 150 L980 155 L960 160 L940 165 L920 170 L900 175 L880 180 L860 185 L840 190 L820 195 L800 200 L780 205 L760 210 L740 215 Z" fill="#d1d5db" stroke="#fff" stroke-width="0.5"/>
  
  <!-- India -->
  <path d="M700 180 L740 175 L780 170 L820 165 L860 160 L900 155 L940 150 L980 145 L1000 140 L1000 200 L980 205 L960 210 L940 215 L920 220 L900 225 L880 230 L860 235 L840 240 L820 245 L800 250 L780 255 L760 260 L740 265 L720 270 L700 275 Z" fill="#d1d5db" stroke="#fff" stroke-width="0.5"/>
  
  <!-- Australia -->
  <path d="M800 350 L840 345 L880 340 L920 335 L960 330 L1000 325 L1000 380 L980 385 L960 390 L940 395 L920 400 L900 405 L880 410 L860 415 L840 420 L820 425 L800 430 Z" fill="#d1d5db" stroke="#fff" stroke-width="0.5"/>
  
  <!-- Interactive Country Overlays for Risk Data -->
  <!-- USA clickable area -->
  <path d="M120 150 L480 145 L500 180 L480 215 L440 230 L400 235 L360 240 L320 235 L280 230 L240 225 L200 220 L160 215 L120 210 Z" 
        fill="rgba(30, 64, 175, 0.1)" 
        stroke="#1e40af" 
        stroke-width="1" 
        class="cursor-pointer transition-all duration-200 hover:fill-opacity-20" 
        id="country-USA"/>
  
  <!-- China clickable area -->
  <path d="M740 120 L900 115 L920 150 L900 185 L860 190 L820 195 L780 200 L740 205 Z" 
        fill="rgba(255, 165, 0, 0.1)" 
        stroke="#f59e0b" 
        stroke-width="1" 
        class="cursor-pointer transition-all duration-200 hover:fill-opacity-20" 
        id="country-CHN"/>
  
  <!-- Russia clickable area -->
  <path d="M700 60 L980 55 L1000 80 L980 115 L940 120 L900 125 L860 130 L820 135 L780 140 L740 145 L700 150 Z" 
        fill="rgba(220, 20, 60, 0.15)" 
        stroke="#dc143c" 
        stroke-width="1" 
        class="cursor-pointer transition-all duration-200 hover:fill-opacity-25" 
        id="country-RUS"/>
  
  <!-- Ukraine clickable area -->
  <path d="M540 140 L600 135 L620 150 L600 165 L580 170 L560 175 L540 180 L520 185 L500 180 L480 175 L460 170 L440 165 L420 160 L400 155 L380 150 L360 145 L340 140 L320 135 L300 130 L280 125 L260 120 L240 115 L220 110 L200 105 L180 100 L160 95 L140 90 L120 85 Z" 
        fill="rgba(255, 99, 71, 0.15)" 
        stroke="#ff6347" 
        stroke-width="1" 
        class="cursor-pointer transition-all duration-200 hover:fill-opacity-25" 
        id="country-UKR"/>
  
  <!-- India clickable area -->
  <path d="M700 180 L780 175 L800 210 L780 245 L740 250 L720 255 L700 260 Z" 
        fill="rgba(255, 165, 0, 0.1)" 
        stroke="#f59e0b" 
        stroke-width="1" 
        class="cursor-pointer transition-all duration-200 hover:fill-opacity-20" 
        id="country-IND"/>
  
  <!-- Middle East regions -->
  <path d="M580 160 L620 155 L640 170 L620 185 L600 190 L580 195 L560 200 L540 205 L520 210 L500 215 L480 220 L460 225 L440 230 L420 235 L400 240 L380 245 L360 250 L340 255 L320 260 L300 265 L280 270 L260 275 L240 280 L220 285 L200 290 L180 295 L160 300 L140 305 L120 310 Z" 
        fill="rgba(139, 0, 0, 0.15)" 
        stroke="#8b0000" 
        stroke-width="1" 
        class="cursor-pointer transition-all duration-200 hover:fill-opacity-25" 
        id="region-middleeast"/>
</svg>