<svg width="1000" height="500" viewBox="0 0 1000 500" xmlns="http://www.w3.org/2000/svg">
  <!-- Ocean background -->
  <rect width="1000" height="500" fill="#e0f2fe"/>
  
  <!-- Accurate World Map with proper proportions -->
  
  <!-- North America -->
  <!-- Canada -->
  <path d="M50 80 L180 70 L220 50 L280 45 L320 55 L350 70 L380 85 L420 95 L450 105 L480 115 L510 125 L540 135 L570 145 L580 155 L570 165 L550 175 L520 185 L490 195 L460 205 L430 215 L400 225 L370 235 L340 245 L310 235 L280 225 L250 215 L220 205 L190 195 L160 185 L130 175 L100 165 L70 155 L50 145 L40 125 L35 105 L40 85 Z" 
        fill="#c7d2fe" stroke="#ffffff" stroke-width="1"/>
  
  <!-- United States -->
  <path d="M80 150 L180 145 L220 140 L280 135 L320 130 L360 125 L400 120 L440 115 L480 120 L520 125 L560 130 L600 135 L640 140 L680 145 L720 150 L760 155 L800 160 L840 165 L880 170 L900 175 L880 185 L860 195 L840 205 L820 215 L800 225 L780 235 L760 245 L740 255 L720 265 L700 275 L680 285 L660 295 L640 305 L620 315 L600 325 L580 335 L560 345 L540 355 L520 365 L500 375 L480 385 L460 395 L440 405 L420 415 L400 425 L380 435 L360 445 L340 455 L320 465 L300 475 L280 485 L260 490 L240 485 L220 475 L200 465 L180 455 L160 445 L140 435 L120 425 L100 415 L80 405 L60 395 L45 385 L35 375 L30 365 L35 355 L45 345 L60 335 L80 325 L100 315 L120 305 L140 295 L160 285 L180 275 L200 265 L220 255 L240 245 L260 235 L280 225 L300 215 L320 205 L340 195 L360 185 L380 175 L400 165 L420 155 L440 145 L460 135 L480 125 L500 115 L520 105 L540 95 L560 85 L580 75 L600 65 L620 55 L640 45 L660 35 L680 25 L700 15 L720 5 L740 -5 L760 -15 L780 -25 L800 -35 L820 -45 L840 -55 L860 -65 L880 -75 L900 -85 L920 -95 L940 -105 L960 -115 L980 -125 L1000 -135 L1000 0 L980 10 L960 20 L940 30 L920 40 L900 50 L880 60 L860 70 L840 80 L820 90 L800 100 L780 110 L760 120 L740 130 L720 140 L700 150 L680 160 L660 170 L640 180 L620 190 L600 200 L580 210 L560 220 L540 230 L520 240 L500 250 L480 260 L460 270 L440 280 L420 290 L400 300 L380 310 L360 320 L340 330 L320 340 L300 350 L280 360 L260 370 L240 380 L220 390 L200 400 L180 410 L160 420 L140 430 L120 440 L100 450 L80 460 L60 470 L40 480 L20 490 L0 500 L0 150 Z" 
        fill="#a7f3d0" stroke="#ffffff" stroke-width="1"/>
  
  <!-- Mexico and Central America -->
  <path d="M80 405 L160 400 L240 395 L320 390 L400 385 L480 380 L560 375 L640 370 L720 365 L800 360 L880 355 L960 350 L1000 345 L1000 420 L980 425 L960 430 L940 435 L920 440 L900 445 L880 450 L860 455 L840 460 L820 465 L800 470 L780 475 L760 480 L740 485 L720 490 L700 495 L680 500 L660 495 L640 490 L620 485 L600 480 L580 475 L560 470 L540 465 L520 460 L500 455 L480 450 L460 445 L440 440 L420 435 L400 430 L380 425 L360 420 L340 415 L320 410 L300 405 L280 400 L260 395 L240 390 L220 385 L200 380 L180 375 L160 370 L140 365 L120 360 L100 355 L80 350 Z" 
        fill="#c7d2fe" stroke="#ffffff" stroke-width="1"/>
  
  <!-- South America -->
  <!-- Brazil -->
  <path d="M300 300 L400 295 L500 290 L600 285 L700 280 L800 275 L900 270 L1000 265 L1000 350 L980 355 L960 360 L940 365 L920 370 L900 375 L880 380 L860 385 L840 390 L820 395 L800 400 L780 405 L760 410 L740 415 L720 420 L700 425 L680 430 L660 435 L640 440 L620 445 L600 450 L580 455 L560 460 L540 465 L520 470 L500 475 L480 480 L460 485 L440 490 L420 495 L400 500 L380 495 L360 490 L340 485 L320 480 L300 475 Z" 
        fill="#a7f3d0" stroke="#ffffff" stroke-width="1"/>
  
  <!-- Argentina -->
  <path d="M320 420 L400 415 L480 410 L560 405 L640 400 L720 395 L800 390 L880 385 L960 380 L1000 375 L1000 450 L980 455 L960 460 L940 465 L920 470 L900 475 L880 480 L860 485 L840 490 L820 495 L800 500 L780 495 L760 490 L740 485 L720 480 L700 475 L680 470 L660 465 L640 460 L620 455 L600 450 L580 445 L560 440 L540 435 L520 430 L500 425 L480 420 L460 415 L440 410 L420 405 L400 400 L380 395 L360 390 L340 385 L320 380 Z" 
        fill="#c7d2fe" stroke="#ffffff" stroke-width="1"/>
  
  <!-- Europe -->
  <!-- Western Europe -->
  <path d="M450 120 L520 115 L580 110 L640 105 L700 100 L760 95 L820 90 L880 85 L940 80 L1000 75 L1000 140 L980 145 L960 150 L940 155 L920 160 L900 165 L880 170 L860 175 L840 180 L820 185 L800 190 L780 195 L760 200 L740 205 L720 210 L700 215 L680 220 L660 225 L640 230 L620 235 L600 240 L580 245 L560 250 L540 255 L520 260 L500 265 L480 270 L460 275 L450 280 L455 270 L460 260 L465 250 L470 240 L475 230 L480 220 L485 210 L490 200 L495 190 L500 180 L505 170 L510 160 L515 150 L520 140 L525 130 L530 120 L535 110 L540 100 L545 90 L550 80 L555 70 L560 60 L565 50 L570 40 L575 30 L580 20 L585 10 L590 0 L595 -10 L600 -20 L605 -30 L610 -40 L615 -50 L620 -60 L625 -70 L630 -80 L635 -90 L640 -100 L645 -110 L650 -120 L655 -130 L660 -140 L665 -150 L670 -160 L675 -170 L680 -180 L685 -190 L690 -200 L695 -210 L700 -220 L705 -230 L710 -240 L715 -250 L720 -260 L725 -270 L730 -280 L735 -290 L740 -300 L745 -310 L750 -320 L755 -330 L760 -340 L765 -350 L770 -360 L775 -370 L780 -380 L785 -390 L790 -400 L795 -410 L800 -420 L805 -430 L810 -440 L815 -450 L820 -460 L825 -470 L830 -480 L835 -490 L840 -500 L845 -510 L850 -520 L855 -530 L860 -540 L865 -550 L870 -560 L875 -570 L880 -580 L885 -590 L890 -600 L895 -610 L900 -620 L905 -630 L910 -640 L915 -650 L920 -660 L925 -670 L930 -680 L935 -690 L940 -700 L945 -710 L950 -720 L955 -730 L960 -740 L965 -750 L970 -760 L975 -770 L980 -780 L985 -790 L990 -800 L995 -810 L1000 -820 L1000 0 L995 10 L990 20 L985 30 L980 40 L975 50 L970 60 L965 70 L960 80 L955 90 L950 100 L945 110 L940 120 L935 130 L930 140 L925 150 L920 160 L915 170 L910 180 L905 190 L900 200 L895 210 L890 220 L885 230 L880 240 L875 250 L870 260 L865 270 L860 280 L855 290 L850 300 L845 310 L840 320 L835 330 L830 340 L825 350 L820 360 L815 370 L810 380 L805 390 L800 400 L795 410 L790 420 L785 430 L780 440 L775 450 L770 460 L765 470 L760 480 L755 490 L750 500 L745 490 L740 480 L735 470 L730 460 L725 450 L720 440 L715 430 L710 420 L705 410 L700 400 L695 390 L690 380 L685 370 L680 360 L675 350 L670 340 L665 330 L660 320 L655 310 L650 300 L645 290 L640 280 L635 270 L630 260 L625 250 L620 240 L615 230 L610 220 L605 210 L600 200 L595 190 L590 180 L585 170 L580 160 L575 150 L570 140 L565 130 L560 120 L555 110 L550 100 L545 90 L540 80 L535 70 L530 60 L525 50 L520 40 L515 30 L510 20 L505 10 L500 0 L495 -10 L490 -20 L485 -30 L480 -40 L475 -50 L470 -60 L465 -70 L460 -80 L455 -90 L450 -100 L445 -110 L440 -120 L435 -130 L430 -140 L425 -150 L420 -160 L415 -170 L410 -180 L405 -190 L400 -200 L395 -210 L390 -220 L385 -230 L380 -240 L375 -250 L370 -260 L365 -270 L360 -280 L355 -290 L350 -300 L345 -310 L340 -320 L335 -330 L330 -340 L325 -350 L320 -360 L315 -370 L310 -380 L305 -390 L300 -400 L295 -410 L290 -420 L285 -430 L280 -440 L275 -450 L270 -460 L265 -470 L260 -480 L255 -490 L250 -500 L245 -510 L240 -520 L235 -530 L230 -540 L225 -550 L220 -560 L215 -570 L210 -580 L205 -590 L200 -600 L195 -610 L190 -620 L185 -630 L180 -640 L175 -650 L170 -660 L165 -670 L160 -680 L155 -690 L150 -700 L145 -710 L140 -720 L135 -730 L130 -740 L125 -750 L120 -760 L115 -770 L110 -780 L105 -790 L100 -800 L95 -810 L90 -820 L85 -830 L80 -840 L75 -850 L70 -860 L65 -870 L60 -880 L55 -890 L50 -900 L45 -910 L40 -920 L35 -930 L30 -940 L25 -950 L20 -960 L15 -970 L10 -980 L5 -990 L0 -1000 L0 120 Z" 
        fill="#fef3c7" stroke="#ffffff" stroke-width="1"/>
  
  <!-- Russia -->
  <path d="M560 40 L640 35 L720 30 L800 25 L880 20 L960 15 L1000 10 L1000 100 L980 105 L960 110 L940 115 L920 120 L900 125 L880 130 L860 135 L840 140 L820 145 L800 150 L780 155 L760 160 L740 165 L720 170 L700 175 L680 180 L660 185 L640 190 L620 195 L600 200 L580 205 L560 210 L540 215 L520 220 L500 225 L480 230 L460 235 L440 240 L420 245 L400 250 L380 255 L360 260 L340 265 L320 270 L300 275 L280 280 L260 285 L240 290 L220 295 L200 300 L180 305 L160 310 L140 315 L120 320 L100 325 L80 330 L60 335 L40 340 L20 345 L0 350 L0 40 Z" 
        fill="#fed7aa" stroke="#ffffff" stroke-width="1"/>
  
  <!-- Africa -->
  <!-- North Africa -->
  <path d="M480 200 L560 195 L640 190 L720 185 L800 180 L880 175 L960 170 L1000 165 L1000 230 L980 235 L960 240 L940 245 L920 250 L900 255 L880 260 L860 265 L840 270 L820 275 L800 280 L780 285 L760 290 L740 295 L720 300 L700 305 L680 310 L660 315 L640 320 L620 325 L600 330 L580 335 L560 340 L540 345 L520 350 L500 355 L480 360 Z" 
        fill="#fde047" stroke="#ffffff" stroke-width="1"/>
  
  <!-- Sub-Saharan Africa -->
  <path d="M500 320 L580 315 L660 310 L740 305 L820 300 L900 295 L980 290 L1000 285 L1000 380 L980 385 L960 390 L940 395 L920 400 L900 405 L880 410 L860 415 L840 420 L820 425 L800 430 L780 435 L760 440 L740 445 L720 450 L700 455 L680 460 L660 465 L640 470 L620 475 L600 480 L580 485 L560 490 L540 495 L520 500 L500 495 L480 490 L460 485 L440 480 L420 475 L400 470 L380 465 L360 460 L340 455 L320 450 L300 445 L280 440 L260 435 L240 430 L220 425 L200 420 L180 415 L160 410 L140 405 L120 400 L100 395 L80 390 L60 385 L40 380 L20 375 L0 370 L0 320 Z" 
        fill="#a7f3d0" stroke="#ffffff" stroke-width="1"/>
  
  <!-- Asia -->
  <!-- China -->
  <path d="M680 100 L760 95 L840 90 L920 85 L1000 80 L1000 160 L980 165 L960 170 L940 175 L920 180 L900 185 L880 190 L860 195 L840 200 L820 205 L800 210 L780 215 L760 220 L740 225 L720 230 L700 235 L680 240 Z" 
        fill="#fbbf24" stroke="#ffffff" stroke-width="1"/>
  
  <!-- India -->
  <path d="M640 180 L720 175 L800 170 L880 165 L960 160 L1000 155 L1000 220 L980 225 L960 230 L940 235 L920 240 L900 245 L880 250 L860 255 L840 260 L820 265 L800 270 L780 275 L760 280 L740 285 L720 290 L700 295 L680 300 L660 305 L640 310 Z" 
        fill="#a78bfa" stroke="#ffffff" stroke-width="1"/>
  
  <!-- Australia -->
  <path d="M720 350 L800 345 L880 340 L960 335 L1000 330 L1000 400 L980 405 L960 410 L940 415 L920 420 L900 425 L880 430 L860 435 L840 440 L820 445 L800 450 L780 455 L760 460 L740 465 L720 470 Z" 
        fill="#fca5a5" stroke="#ffffff" stroke-width="1"/>
</svg>