<svg width="1920" height="1080" viewBox="0 0 1920 1080" xmlns="http://www.w3.org/2000/svg">
  <!-- Background -->
  <rect width="1920" height="1080" fill="#f8fafc"/>
  
  <!-- Global perspective inspired background -->
  <defs>
    <!-- Globe gradient -->
    <radialGradient id="globeGrad" cx="0.5" cy="0.4" r="0.6">
      <stop offset="0%" style="stop-color:#1e40af;stop-opacity:0.02"/>
      <stop offset="70%" style="stop-color:#3b82f6;stop-opacity:0.04"/>
      <stop offset="100%" style="stop-color:#1e40af;stop-opacity:0.01"/>
    </radialGradient>
    
    <linearGradient id="latitudeGrad" x1="0%" y1="0%" x2="100%" y2="0%">
      <stop offset="0%" style="stop-color:#1e40af;stop-opacity:0.01"/>
      <stop offset="50%" style="stop-color:#3b82f6;stop-opacity:0.02"/>
      <stop offset="100%" style="stop-color:#1e40af;stop-opacity:0.01"/>
    </linearGradient>
  </defs>
  
  <!-- Large subtle globe -->
  <circle cx="960" cy="540" r="400" fill="url(#globeGrad)"/>
  
  <!-- Latitude lines -->
  <ellipse cx="960" cy="540" rx="400" ry="400" fill="none" stroke="#1e40af" stroke-width="1" opacity="0.03"/>
  <ellipse cx="960" cy="540" rx="400" ry="320" fill="none" stroke="#3b82f6" stroke-width="0.8" opacity="0.03"/>
  <ellipse cx="960" cy="540" rx="400" ry="240" fill="none" stroke="#1e40af" stroke-width="0.8" opacity="0.03"/>
  <ellipse cx="960" cy="540" rx="400" ry="160" fill="none" stroke="#3b82f6" stroke-width="0.8" opacity="0.03"/>
  <ellipse cx="960" cy="540" rx="400" ry="80" fill="none" stroke="#1e40af" stroke-width="0.8" opacity="0.03"/>
  
  <!-- Longitude lines -->
  <ellipse cx="960" cy="540" rx="400" ry="400" fill="none" stroke="#3b82f6" stroke-width="1" opacity="0.03"/>
  <ellipse cx="960" cy="540" rx="320" ry="400" fill="none" stroke="#1e40af" stroke-width="0.8" opacity="0.03"/>
  <ellipse cx="960" cy="540" rx="240" ry="400" fill="none" stroke="#3b82f6" stroke-width="0.8" opacity="0.03"/>
  <ellipse cx="960" cy="540" rx="160" ry="400" fill="none" stroke="#1e40af" stroke-width="0.8" opacity="0.03"/>
  <ellipse cx="960" cy="540" rx="80" ry="400" fill="none" stroke="#3b82f6" stroke-width="0.8" opacity="0.03"/>
  
  <!-- Continental outlines (very subtle) -->
  <path d="M 750 450 Q 800 430 850 460 T 950 470" fill="none" stroke="#1e40af" stroke-width="1" opacity="0.02"/>
  <path d="M 970 350 Q 1020 340 1070 360 T 1170 370" fill="none" stroke="#3b82f6" stroke-width="1" opacity="0.02"/>
  <path d="M 800 650 Q 850 630 900 660 T 1000 670" fill="none" stroke="#1e40af" stroke-width="1" opacity="0.02"/>
  <path d="M 1050 580 Q 1100 570 1150 590 T 1200 600" fill="none" stroke="#3b82f6" stroke-width="1" opacity="0.02"/>
  
  <!-- Key global locations -->
  <circle cx="780" cy="480" r="2" fill="#1e40af" opacity="0.1"/>
  <circle cx="1100" cy="380" r="2" fill="#3b82f6" opacity="0.1"/>
  <circle cx="920" cy="620" r="2" fill="#1e40af" opacity="0.1"/>
  <circle cx="1180" cy="520" r="2" fill="#3b82f6" opacity="0.1"/>
  <circle cx="850" cy="350" r="2" fill="#1e40af" opacity="0.1"/>
  
  <!-- Connection arcs between locations -->
  <path d="M 780 480 Q 940 380 1100 380" fill="none" stroke="#1e40af" stroke-width="0.5" opacity="0.05"/>
  <path d="M 1100 380 Q 1010 500 920 620" fill="none" stroke="#3b82f6" stroke-width="0.5" opacity="0.05"/>
  <path d="M 920 620 Q 1050 570 1180 520" fill="none" stroke="#1e40af" stroke-width="0.5" opacity="0.05"/>
  <path d="M 850 350 Q 915 415 780 480" fill="none" stroke="#3b82f6" stroke-width="0.5" opacity="0.05"/>
</svg>