<svg width="1920" height="1080" viewBox="0 0 1920 1080" xmlns="http://www.w3.org/2000/svg">
  <!-- Clean background -->
  <rect width="1920" height="1080" fill="#ffffff"/>
  
  <!-- Minimal geometric elements -->
  <defs>
    <linearGradient id="minimalGrad1" x1="0%" y1="0%" x2="100%" y2="0%">
      <stop offset="0%" style="stop-color:#1e40af;stop-opacity:0.008"/>
      <stop offset="50%" style="stop-color:#3b82f6;stop-opacity:0.015"/>
      <stop offset="100%" style="stop-color:#1e40af;stop-opacity:0.008"/>
    </linearGradient>
    
    <linearGradient id="minimalGrad2" x1="0%" y1="0%" x2="0%" y2="100%">
      <stop offset="0%" style="stop-color:#1e40af;stop-opacity:0.005"/>
      <stop offset="100%" style="stop-color:#3b82f6;stop-opacity:0.01"/>
    </linearGradient>
  </defs>
  
  <!-- Large subtle rectangles -->
  <rect x="0" y="0" width="960" height="1080" fill="url(#minimalGrad1)"/>
  <rect x="960" y="0" width="960" height="540" fill="url(#minimalGrad2)"/>
  
  <!-- Thin accent lines -->
  <line x1="0" y1="360" x2="1920" y2="360" stroke="#1e40af" stroke-width="1" opacity="0.03"/>
  <line x1="0" y1="720" x2="1920" y2="720" stroke="#3b82f6" stroke-width="1" opacity="0.03"/>
  <line x1="640" y1="0" x2="640" y2="1080" stroke="#1e40af" stroke-width="1" opacity="0.03"/>
  <line x1="1280" y1="0" x2="1280" y2="1080" stroke="#3b82f6" stroke-width="1" opacity="0.03"/>
  
  <!-- Single focal point -->
  <circle cx="960" cy="540" r="2" fill="#1e40af" opacity="0.1"/>
  
  <!-- Subtle corner elements -->
  <polygon points="0,0 100,0 0,100" fill="#1e40af" opacity="0.01"/>
  <polygon points="1920,0 1820,0 1920,100" fill="#3b82f6" opacity="0.01"/>
  <polygon points="0,1080 100,1080 0,980" fill="#3b82f6" opacity="0.01"/>
  <polygon points="1920,1080 1820,1080 1920,980" fill="#1e40af" opacity="0.01"/>
</svg>