<svg width="1920" height="1080" viewBox="0 0 1920 1080" xmlns="http://www.w3.org/2000/svg">
  <!-- Background -->
  <rect width="1920" height="1080" fill="#fefefe"/>
  
  <!-- Data visualization inspired background -->
  <defs>
    <!-- Chart line gradients -->
    <linearGradient id="chartGrad1" x1="0%" y1="0%" x2="100%" y2="0%">
      <stop offset="0%" style="stop-color:#1e40af;stop-opacity:0.02"/>
      <stop offset="50%" style="stop-color:#3b82f6;stop-opacity:0.04"/>
      <stop offset="100%" style="stop-color:#1e40af;stop-opacity:0.02"/>
    </linearGradient>
    
    <linearGradient id="chartGrad2" x1="0%" y1="0%" x2="100%" y2="0%">
      <stop offset="0%" style="stop-color:#3b82f6;stop-opacity:0.02"/>
      <stop offset="50%" style="stop-color:#1e40af;stop-opacity:0.04"/>
      <stop offset="100%" style="stop-color:#3b82f6;stop-opacity:0.02"/>
    </linearGradient>
  </defs>
  
  <!-- Chart-like line graphs -->
  <path d="M 100 400 L 200 380 L 300 420 L 400 350 L 500 390 L 600 320 L 700 360 L 800 300 L 900 340" 
        fill="none" stroke="url(#chartGrad1)" stroke-width="2" opacity="0.3"/>
  
  <path d="M 100 600 L 200 580 L 300 620 L 400 550 L 500 590 L 600 520 L 700 560 L 800 500 L 900 540" 
        fill="none" stroke="url(#chartGrad2)" stroke-width="2" opacity="0.3"/>
        
  <path d="M 1000 300 L 1100 280 L 1200 320 L 1300 250 L 1400 290 L 1500 220 L 1600 260 L 1700 200 L 1800 240" 
        fill="none" stroke="url(#chartGrad1)" stroke-width="2" opacity="0.3"/>
  
  <path d="M 1000 700 L 1100 680 L 1200 720 L 1300 650 L 1400 690 L 1500 620 L 1600 660 L 1700 600 L 1800 640" 
        fill="none" stroke="url(#chartGrad2)" stroke-width="2" opacity="0.3"/>
  
  <!-- Data points -->
  <circle cx="200" cy="380" r="2" fill="#1e40af" opacity="0.15"/>
  <circle cx="400" cy="350" r="2" fill="#1e40af" opacity="0.15"/>
  <circle cx="600" cy="320" r="2" fill="#1e40af" opacity="0.15"/>
  <circle cx="800" cy="300" r="2" fill="#1e40af" opacity="0.15"/>
  
  <circle cx="300" cy="620" r="2" fill="#3b82f6" opacity="0.15"/>
  <circle cx="500" cy="590" r="2" fill="#3b82f6" opacity="0.15"/>
  <circle cx="700" cy="560" r="2" fill="#3b82f6" opacity="0.15"/>
  <circle cx="900" cy="540" r="2" fill="#3b82f6" opacity="0.15"/>
  
  <circle cx="1200" cy="320" r="2" fill="#1e40af" opacity="0.15"/>
  <circle cx="1400" cy="290" r="2" fill="#1e40af" opacity="0.15"/>
  <circle cx="1600" cy="260" r="2" fill="#1e40af" opacity="0.15"/>
  <circle cx="1800" cy="240" r="2" fill="#1e40af" opacity="0.15"/>
  
  <!-- Grid lines (subtle) -->
  <line x1="0" y1="200" x2="1920" y2="200" stroke="#1e40af" stroke-width="0.5" opacity="0.02"/>
  <line x1="0" y1="400" x2="1920" y2="400" stroke="#1e40af" stroke-width="0.5" opacity="0.02"/>
  <line x1="0" y1="600" x2="1920" y2="600" stroke="#1e40af" stroke-width="0.5" opacity="0.02"/>
  <line x1="0" y1="800" x2="1920" y2="800" stroke="#1e40af" stroke-width="0.5" opacity="0.02"/>
  
  <line x1="320" y1="0" x2="320" y2="1080" stroke="#3b82f6" stroke-width="0.5" opacity="0.02"/>
  <line x1="640" y1="0" x2="640" y2="1080" stroke="#3b82f6" stroke-width="0.5" opacity="0.02"/>
  <line x1="960" y1="0" x2="960" y2="1080" stroke="#3b82f6" stroke-width="0.5" opacity="0.02"/>
  <line x1="1280" y1="0" x2="1280" y2="1080" stroke="#3b82f6" stroke-width="0.5" opacity="0.02"/>
  <line x1="1600" y1="0" x2="1600" y2="1080" stroke="#3b82f6" stroke-width="0.5" opacity="0.02"/>
  
  <!-- Bar chart elements (very subtle) -->
  <rect x="150" y="850" width="30" height="50" fill="#1e40af" opacity="0.03"/>
  <rect x="200" y="830" width="30" height="70" fill="#3b82f6" opacity="0.03"/>
  <rect x="250" y="860" width="30" height="40" fill="#1e40af" opacity="0.03"/>
  <rect x="300" y="820" width="30" height="80" fill="#3b82f6" opacity="0.03"/>
  
  <rect x="1450" y="100" width="30" height="60" fill="#1e40af" opacity="0.03"/>
  <rect x="1500" y="80" width="30" height="80" fill="#3b82f6" opacity="0.03"/>
  <rect x="1550" y="110" width="30" height="50" fill="#1e40af" opacity="0.03"/>
  <rect x="1600" y="70" width="30" height="90" fill="#3b82f6" opacity="0.03"/>
</svg>