<svg width="1920" height="1080" viewBox="0 0 1920 1080" xmlns="http://www.w3.org/2000/svg">
  <!-- Background -->
  <rect width="1920" height="1080" fill="#f1f5f9"/>
  
  <!-- Satellite imagery inspired pattern -->
  <defs>
    <!-- Gradient definitions for satellite look -->
    <radialGradient id="satelliteGrad1" cx="0.3" cy="0.3" r="0.8">
      <stop offset="0%" style="stop-color:#64748b;stop-opacity:0.03"/>
      <stop offset="100%" style="stop-color:#1e293b;stop-opacity:0.01"/>
    </radialGradient>
    
    <radialGradient id="satelliteGrad2" cx="0.7" cy="0.6" r="0.6">
      <stop offset="0%" style="stop-color:#334155;stop-opacity:0.02"/>
      <stop offset="100%" style="stop-color:#475569;stop-opacity:0.005"/>
    </radialGradient>
    
    <linearGradient id="terrainGrad" x1="0%" y1="0%" x2="100%" y2="100%">
      <stop offset="0%" style="stop-color:#1e40af;stop-opacity:0.01"/>
      <stop offset="50%" style="stop-color:#3b82f6;stop-opacity:0.02"/>
      <stop offset="100%" style="stop-color:#1e40af;stop-opacity:0.01"/>
    </linearGradient>
  </defs>
  
  <!-- Large terrain-like shapes -->
  <ellipse cx="400" cy="200" rx="300" ry="150" fill="url(#satelliteGrad1)" transform="rotate(15)"/>
  <ellipse cx="1200" cy="400" rx="400" ry="200" fill="url(#satelliteGrad2)" transform="rotate(-20)"/>
  <ellipse cx="800" cy="700" rx="350" ry="180" fill="url(#satelliteGrad1)" transform="rotate(45)"/>
  <ellipse cx="1500" cy="800" rx="250" ry="120" fill="url(#satelliteGrad2)" transform="rotate(-30)"/>
  
  <!-- Grid overlay (subtle) -->
  <defs>
    <pattern id="grid" width="100" height="100" patternUnits="userSpaceOnUse">
      <path d="M 100 0 L 0 0 0 100" fill="none" stroke="#1e40af" stroke-width="0.2" opacity="0.1"/>
    </pattern>
  </defs>
  <rect width="1920" height="1080" fill="url(#grid)"/>
  
  <!-- Strategic points -->
  <circle cx="300" cy="300" r="3" fill="#1e40af" opacity="0.2"/>
  <circle cx="800" cy="200" r="3" fill="#3b82f6" opacity="0.2"/>
  <circle cx="1400" cy="500" r="3" fill="#1e40af" opacity="0.2"/>
  <circle cx="1100" cy="800" r="3" fill="#3b82f6" opacity="0.2"/>
  <circle cx="600" cy="650" r="3" fill="#1e40af" opacity="0.2"/>
  
  <!-- Connecting lines between strategic points -->
  <line x1="300" y1="300" x2="800" y2="200" stroke="#1e40af" stroke-width="0.5" opacity="0.1"/>
  <line x1="800" y1="200" x2="1400" y2="500" stroke="#3b82f6" stroke-width="0.5" opacity="0.1"/>
  <line x1="1400" y1="500" x2="1100" y2="800" stroke="#1e40af" stroke-width="0.5" opacity="0.1"/>
  <line x1="600" y1="650" x2="1100" y2="800" stroke="#3b82f6" stroke-width="0.5" opacity="0.1"/>
</svg>